<mxfile host="65bd71144e">
    <diagram id="-Si2NsP0vHukIP9rpYgy" name="Page-1">
        <mxGraphModel dx="1360" dy="913" grid="1" gridSize="10" guides="1" tooltips="1" connect="1" arrows="1" fold="1" page="1" pageScale="1" pageWidth="850" pageHeight="1100" math="0" shadow="0">
            <root>
                <mxCell id="0"/>
                <mxCell id="3" value="Untitled Layer" parent="0"/>
                <mxCell id="5" value="" style="endArrow=classic;html=1;sketch=1;curveFitting=1;jiggle=2;strokeWidth=5;" edge="1" parent="3">
                    <mxGeometry width="50" height="50" relative="1" as="geometry">
                        <mxPoint x="80" y="480" as="sourcePoint"/>
                        <mxPoint x="80" y="40" as="targetPoint"/>
                    </mxGeometry>
                </mxCell>
                <mxCell id="6" value="" style="endArrow=classic;html=1;sketch=1;curveFitting=1;jiggle=2;strokeWidth=5;" edge="1" parent="3">
                    <mxGeometry width="50" height="50" relative="1" as="geometry">
                        <mxPoint x="80" y="480" as="sourcePoint"/>
                        <mxPoint x="1120" y="480" as="targetPoint"/>
                    </mxGeometry>
                </mxCell>
                <mxCell id="7" value="" style="curved=1;endArrow=none;html=1;sketch=1;strokeWidth=11;endFill=0;fillColor=#f8cecc;strokeColor=#b85450;" edge="1" parent="3">
                    <mxGeometry width="50" height="50" relative="1" as="geometry">
                        <mxPoint x="80" y="480" as="sourcePoint"/>
                        <mxPoint x="1121.5999755859375" y="180" as="targetPoint"/>
                        <Array as="points">
                            <mxPoint x="130" y="300"/>
                            <mxPoint x="180" y="130"/>
                            <mxPoint x="240" y="140"/>
                            <mxPoint x="420" y="210"/>
                            <mxPoint x="520" y="160"/>
                            <mxPoint x="650" y="180"/>
                            <mxPoint x="690" y="270"/>
                            <mxPoint x="850" y="150"/>
                            <mxPoint x="1000" y="190"/>
                        </Array>
                    </mxGeometry>
                </mxCell>
                <mxCell id="8" value="" style="endArrow=none;dashed=1;html=1;dashPattern=1 3;strokeWidth=12;sketch=1;fillColor=#dae8fc;strokeColor=#6c8ebf;" edge="1" parent="3">
                    <mxGeometry width="50" height="50" relative="1" as="geometry">
                        <mxPoint x="60" y="180" as="sourcePoint"/>
                        <mxPoint x="1120" y="180" as="targetPoint"/>
                    </mxGeometry>
                </mxCell>
                <mxCell id="9" value="Istwert" style="text;html=1;strokeColor=none;fillColor=none;align=center;verticalAlign=middle;whiteSpace=wrap;rounded=0;opacity=50;fontFamily=Tahoma;fontSize=32;" vertex="1" parent="3">
                    <mxGeometry x="90" y="90" width="240" height="30" as="geometry"/>
                </mxCell>
                <mxCell id="10" value="Sollwert" style="text;html=1;strokeColor=none;fillColor=none;align=center;verticalAlign=middle;whiteSpace=wrap;rounded=0;opacity=50;fontFamily=Tahoma;fontSize=32;" vertex="1" parent="3">
                    <mxGeometry x="130" y="192" width="240" height="30" as="geometry"/>
                </mxCell>
                <mxCell id="11" value="&lt;font style=&quot;font-size: 32px;&quot;&gt;t&lt;/font&gt;" style="text;html=1;strokeColor=none;fillColor=none;align=center;verticalAlign=middle;whiteSpace=wrap;rounded=0;opacity=50;fontFamily=Tahoma;fontSize=32;" vertex="1" parent="3">
                    <mxGeometry x="1070" y="490" width="50" height="30" as="geometry"/>
                </mxCell>
            </root>
        </mxGraphModel>
    </diagram>
</mxfile>